<?xml version="1.0" standalone="no"?>
<!DOCTYPE svg PUBLIC "-//W3C//DTD SVG 20010904//EN"
 "http://www.w3.org/TR/2001/REC-SVG-20010904/DTD/svg10.dtd">
<svg version="1.0" xmlns="http://www.w3.org/2000/svg"
 width="700.000000pt" height="700.000000pt" viewBox="0 0 700.000000 700.000000"
 preserveAspectRatio="xMidYMid meet">
<metadata>
Created by potrace 1.11, written by Peter Selinger 2001-2013
</metadata>
<g transform="translate(0.000000,700.000000) scale(0.100000,-0.100000)"
fill="#000000" stroke="none">
<path d="M3275 6964 c-22 -2 -89 -9 -150 -14 -643 -62 -1279 -324 -1810 -746
-140 -112 -405 -377 -518 -519 -422 -528 -668 -1123 -749 -1810 -16 -143 -16
-577 0 -720 69 -589 258 -1106 576 -1575 440 -651 1109 -1144 1856 -1369 653
-197 1335 -199 1995 -5 694 204 1322 642 1767 1231 363 483 586 1028 669 1639
29 214 32 630 6 839 -86 676 -340 1273 -764 1794 -114 140 -360 384 -498 494
-525 419 -1128 670 -1795 747 -97 11 -513 21 -585 14z m650 -483 c550 -84
1047 -306 1472 -658 127 -105 348 -332 442 -453 344 -443 542 -918 623 -1490
20 -147 17 -613 -5 -764 -99 -658 -368 -1214 -809 -1671 -479 -496 -1053 -793
-1733 -896 -170 -26 -504 -36 -685 -20 -595 53 -1115 258 -1600 631 -126 97
-416 390 -511 515 -421 555 -628 1163 -629 1841 0 198 10 327 40 504 147 862
663 1615 1420 2070 359 217 791 360 1230 409 150 17 585 6 745 -18z"/>
<path d="M3380 5693 c-43 -22 -62 -41 -88 -83 -31 -51 -33 -60 -30 -126 4 -84
33 -137 99 -181 51 -34 154 -44 209 -21 126 53 176 196 112 319 -57 110 -190
151 -302 92z"/>
<path d="M1236 4839 c-181 -61 -246 -92 -246 -118 0 -46 260 -531 481 -897
138 -230 372 -576 414 -613 20 -17 45 -31 57 -31 28 0 309 150 316 169 10 25
-71 172 -243 446 -119 189 -232 376 -241 398 -3 10 2 19 14 26 32 17 239 47
582 86 372 42 596 54 622 34 17 -13 11 -31 -78 -249 -241 -594 -624 -1663
-624 -1741 0 -21 28 -31 165 -58 157 -31 271 -44 291 -33 10 6 26 48 44 118
93 366 660 1897 738 1994 22 27 77 39 187 41 131 2 140 5 139 60 0 24 -11 100
-24 168 -18 101 -28 129 -47 149 -25 25 -26 25 -152 18 -388 -21 -1469 -120
-1864 -172 -109 -14 -204 -23 -211 -21 -7 3 -33 58 -57 122 -45 120 -67 155
-97 155 -9 0 -84 -23 -166 -51z"/>
<path d="M4253 4803 c-7 -5 -26 -60 -42 -123 -90 -349 -567 -1652 -707 -1932
-19 -37 -43 -72 -55 -78 -11 -7 -81 -15 -155 -19 -77 -5 -140 -13 -146 -19 -9
-9 -4 -51 17 -164 15 -84 32 -163 36 -176 15 -41 49 -45 249 -32 520 32 1498
127 1903 183 97 14 99 14 108 -7 5 -12 27 -68 49 -125 41 -108 62 -141 89
-141 24 0 310 99 363 126 26 13 50 28 53 34 23 38 -414 818 -701 1250 -163
247 -208 300 -249 300 -16 0 -85 -31 -159 -71 -177 -95 -171 -90 -156 -133 11
-34 157 -281 347 -586 141 -227 142 -228 120 -245 -22 -16 -84 -27 -337 -59
-482 -62 -811 -88 -862 -67 l-28 10 19 48 c11 27 52 127 91 223 184 454 483
1271 575 1570 52 170 52 157 3 171 -147 39 -403 76 -425 62z"/>
<path d="M3427 1786 c-60 -16 -93 -40 -131 -94 -57 -81 -45 -208 27 -282 142
-146 386 -46 387 159 0 149 -139 255 -283 217z"/>
</g>
</svg>
